Coordinates
version=1
nRows=12
nColumns=28
inDegrees=yes

Units are S.I. units (second, meters, Newtons, ...)
Angles are in degrees.

endheader
time	pelvis_tilt	pelvis_list	pelvis_rotation	pelvis_tx	pelvis_ty	pelvis_tz	hip_flexion_r	hip_adduction_r	hip_rotation_r	knee_angle_r	ankle_angle_r	subtalar_angle_r	mtp_angle_r	hip_flexion_l	hip_adduction_l	hip_rotation_l	knee_angle_l	socket_flexion	socket_adduction	socket_rotation	socket_tx	socket_ty	socket_tz	foot_flex	lumbar_extension	lumbar_bending	lumbar_rotation
      0.53333333	     -2.63432876	     -5.08305451	      7.63339728	     -0.02814616	      0.95572797	      0.23872733	     30.44933213	      3.92662755	     -5.89875350	    -14.99854540	     12.23209777	     -9.90423953	     -2.97952270	    -14.05137782	     -5.08469521	     -5.93745861	    -24.29745765	    -10.22587528	     -7.27273988	     16.10471855	     -0.01519532	     -0.00267170	     -0.00735477	     10.49341607	     -7.91341400	      6.11203961	    -21.85917249
      0.53750000	     -2.63434079	     -5.08310569	      7.63329381	     -0.02814757	      0.95572803	      0.23872768	     30.44930842	      3.92657494	     -5.89870020	    -14.99851433	     12.23210567	     -9.90426885	     -2.97938004	    -14.05146654	     -5.08460752	     -5.93746437	    -24.29740918	    -10.22594258	     -7.27274912	     16.10491765	     -0.01519521	     -0.00266842	     -0.00735408	     10.49338851	     -7.91327094	      6.11203810	    -21.85910937
      0.54166667	     -2.56791131	     -5.13154936	      7.59530452	     -0.02152950	      0.95429002	      0.23891412	     30.75863562	      4.10207460	     -5.71125628	    -16.06066712	     11.75460268	     -9.96823714	     -2.79871586	    -14.39932519	     -5.17826388	     -6.10952653	    -24.45749022	    -10.06505779	     -7.29680978	     16.18984628	     -0.01511238	     -0.00258797	     -0.00718620	     10.55406253	     -7.95876802	      6.22230111	    -21.85888905
      0.54583333	     -2.51065729	     -5.17497292	      7.53328892	     -0.01494215	      0.95286894	      0.23913919	     31.08356454	      4.28503421	     -5.47941778	    -17.15013526	     11.22816105	    -10.05061886	     -2.59857170	    -14.70541361	     -5.26041395	     -6.26410135	    -24.64546172	     -9.87212817	     -7.33016517	     16.26378497	     -0.01496311	     -0.00249575	     -0.00711448	     10.58965957	     -8.00036459	      6.32577928	    -21.84515013
      0.55000000	     -2.84404356	     -4.92015701	      6.95164967	     -0.00848506	      0.95093731	      0.24024291	     31.84023132	      4.51074977	     -4.07710169	    -18.26502789	      9.83292666	    -11.44118959	      0.24116758	    -14.48254829	     -4.77913741	     -7.53327307	    -24.99732253	     -9.49242387	     -7.78254701	     17.05530015	     -0.01313757	     -0.00164338	     -0.00576256	     10.63829442	     -7.70858204	      5.91152775	    -20.95552158
      0.55416667	     -2.73873994	     -5.05497577	      6.99651853	     -0.00179262	      0.94964125	      0.24026779	     32.09875345	      4.71097961	     -4.09897394	    -19.36033308	      9.26973836	    -11.46710010	      0.37200650	    -14.77834830	     -4.96827585	     -7.56705231	    -25.21574106	     -9.26644974	     -7.77914102	     17.03970250	     -0.01293562	     -0.00170677	     -0.00557819	     10.56288886	     -7.77451283	      6.16164613	    -21.10532600
      0.55833333	     -2.66298028	     -5.13918354	      6.97547510	      0.00490017	      0.94836877	      0.24052178	     32.37818284	      4.91726707	     -3.94993058	    -20.44974158	      8.68345494	    -11.49315733	      0.53559913	    -15.04461946	     -5.13624836	     -7.60381512	    -25.45799266	     -9.03175707	     -7.73326792	     17.05404659	     -0.01296907	     -0.00168561	     -0.00576416	     10.50899512	     -7.81323347	      6.31556922	    -21.20836178
      0.56250000	     -2.61389559	     -5.20459875	      6.89756854	      0.01158859	      0.94708831	      0.24089901	     32.69460551	      5.13767039	     -3.72522217	    -21.56531163	      8.07282182	    -11.56838411	      0.73344639	    -15.26975207	     -5.26235666	     -7.67854333	    -25.71985673	     -8.77395913	     -7.68481047	     17.04460295	     -0.01302073	     -0.00167658	     -0.00591198	     10.41129151	     -7.83155453	      6.44019772	    -21.25978134
      0.56666667	     -2.59278977	     -5.25720000	      6.77951917	      0.01828524	      0.94584885	      0.24136215	     33.03074532	      5.36971105	     -3.43655112	    -22.67752766	      7.44922565	    -11.69951557	      0.96506660	    -15.43867935	     -5.35340087	     -7.77836547	    -26.00877099	     -8.48798301	     -7.63153911	     17.02275688	     -0.01302514	     -0.00162042	     -0.00597358	     10.27462803	     -7.82448343	      6.53312976	    -21.26095460
      0.57083333	     -2.58989463	     -5.30674902	      6.63863120	      0.02497401	      0.94464266	      0.24185010	     33.37325710	      5.61317048	     -3.09811895	    -23.77411489	      6.83796670	    -11.88023968	      1.21964841	    -15.54628264	     -5.42908762	     -7.89023917	    -26.33325199	     -8.16322111	     -7.58255883	     16.99096661	     -0.01295160	     -0.00155184	     -0.00607699	     10.09503542	     -7.80239593	      6.60994728	    -21.21998773
      0.57500000	     -3.27690698	     -5.17911197	      6.00359464	      0.03165178	      0.94253936	      0.24316873	     34.41016131	      6.04265621	     -1.61650461	    -24.79630807	      5.27106068	    -13.75814856	      3.17513331	    -14.88782525	     -5.02292723	     -8.58157345	    -26.74197766	     -7.71208515	     -7.76271990	     17.18430538	     -0.01212568	     -0.00111053	     -0.00497108	      9.91301707	     -7.02522249	      6.33991624	    -20.47389958
      0.57916667	     -3.10135778	     -5.27689386	      6.04423793	      0.03819942	      0.94177592	      0.24365458	     34.52219045	      6.26730967	     -1.52589138	    -25.81504970	      4.90048779	    -13.77992054	      3.34561697	    -14.96586809	     -5.29684210	     -8.56503559	    -27.19389415	     -7.28985765	     -7.63772441	     17.19193004	     -0.01150025	     -0.00097085	     -0.00566750	      9.63562074	     -7.21923076	      6.45559679	    -20.53795724
